<svg xmlns="http://www.w3.org/2000/svg" viewBox="0 0 510.5 510.5">
    <path
            d="M473 30H148a7 7 0 1 0 0 15h325c12 0 23 10 23 22v265h-50a8 8 0 0 0 0 15h50v31c0 13-11 23-23 23H117a7 7 0 1 0 0 15h70l-14 50h-25a7 7 0 1 0 0 15h215a7 7 0 1 0 0-15h-26l-13-50h149c21 0 38-17 38-38V67c0-20-17-37-38-37zM322 466H189l13-50h106l14 50z"/>
    <path
            d="M87 401H38c-13 0-23-10-23-23v-31h401a7 7 0 1 0 0-15H15V67c0-12 10-22 23-22h80a7 7 0 1 0 0-15H38C17 30 0 47 0 67v311c0 21 17 38 38 38h49a7 7 0 1 0 0-15z"/>
</svg>