<svg viewBox="0 0 24 24" xmlns="http://www.w3.org/2000/svg"><path d="m19 1h-14a5.006 5.006 0 0 0 -5 5v12a5.006 5.006 0 0 0 5 5h14a5.006 5.006 0 0 0 5-5v-12a5.006 5.006 0 0 0 -5-5zm-14 2h14a3 3 0 0 1 3 3v1h-20v-1a3 3 0 0 1 3-3zm14 18h-14a3 3 0 0 1 -3-3v-9h20v9a3 3 0 0 1 -3 3zm0-8a1 1 0 0 1 -1 1h-12a1 1 0 0 1 0-2h12a1 1 0 0 1 1 1zm-4 4a1 1 0 0 1 -1 1h-8a1 1 0 0 1 0-2h8a1 1 0 0 1 1 1zm-12-12a1 1 0 1 1 1 1 1 1 0 0 1 -1-1zm3 0a1 1 0 1 1 1 1 1 1 0 0 1 -1-1zm3 0a1 1 0 1 1 1 1 1 1 0 0 1 -1-1z"/></svg>

