<svg xmlns="http://www.w3.org/2000/svg" viewBox="0 0 512.1 512.1">
    <path d="M128 406c4 0 8-4 8-8V124a8 8 0 0 0-15 0v274c0 4 3 8 7 8zM384 264c-4 0-7 3-7 7v204c0 12-11 22-23 22H158c-12 0-22-10-22-22v-47a8 8 0 0 0-15 0v47c0 20 16 37 37 37h196c21 0 38-17 38-37V271c0-4-4-7-8-7zM354 0H158c-21 0-37 17-37 38v56a8 8 0 0 0 15 0V38c0-13 10-23 22-23h31c8 15 24 25 41 25h52c17 0 33-10 41-25h31c12 0 23 10 23 23v203a8 8 0 0 0 15 0V38c0-21-17-38-38-38zm-72 25h-52c-9 0-17-4-23-10h98c-6 6-14 10-23 10z"/>
    <path d="M287 478a8 8 0 0 0 0-15h-62a8 8 0 0 0 0 15h62z"/>
</svg>