<svg xmlns="http://www.w3.org/2000/svg" viewBox="0 0 24 24">
  <path fill-rule="evenodd" clip-rule="evenodd" d="M19 3H5a3 3 0 0 0-3 3v12a3 3 0 0 0 3 3h14a3 3 0 0 0 3-3V6a3 3 0 0 0-3-3ZM5 1a5 5 0 0 0-5 5v12a5 5 0 0 0 5 5h14a5 5 0 0 0 5-5V6a5 5 0 0 0-5-5H5Z"/><path d="M11.6 11.8V5.4c0-.2.2-.4.4-.4s.4.2.4.4v6.4a2 2 0 0 1 0 4v2.8c0 .2-.2.4-.4.4a.4.4 0 0 1-.4-.4v-2.9a2 2 0 0 1 0-3.9ZM12 15a1.2 1.2 0 1 0 0-2.4 1.2 1.2 0 0 0 0 2.4ZM16.6 8.5V5.4c0-.2.2-.4.4-.4s.4.2.4.4v3.1a2 2 0 0 1 0 4v6.1c0 .2-.2.4-.4.4a.4.4 0 0 1-.4-.4v-6.2a2 2 0 0 1 0-3.9Zm.4 3.2a1.2 1.2 0 1 0 0-2.4 1.2 1.2 0 0 0 0 2.4ZM6.6 8.5V5.4c0-.2.2-.4.4-.4s.4.2.4.4v3.1a2 2 0 0 1 0 4v6.1c0 .2-.2.4-.4.4a.4.4 0 0 1-.4-.4v-6.2a2 2 0 0 1 0-4Zm.4 3.2a1.2 1.2 0 1 0 0-2.4 1.2 1.2 0 0 0 0 2.4Z"/>
</svg>
