<svg xmlns="http://www.w3.org/2000/svg" viewBox="0 0 512.1 512.1">
    <path
            d="M408 0H104C80 0 60 20 60 44v26a8 8 0 0 0 15 0V44c0-16 13-29 29-29h304c16 0 29 13 29 29v424c0 16-13 29-29 29H104c-16 0-29-13-29-29V100a8 8 0 0 0-15 0v368c0 24 20 44 44 44h304c24 0 44-20 44-44V44c0-24-20-44-44-44z"/>
    <path
            d="M90 61v284a8 8 0 0 0 15 0V69h302v103a8 8 0 0 0 15 0V61c0-4-3-7-7-7H97c-4 0-7 3-7 7zM90 432c0 4 3 8 7 8h318c4 0 7-4 7-8V202a8 8 0 0 0-15 0v223H105v-50a8 8 0 0 0-15 0v57zM233 467a23 23 0 1 0 46-1 23 23 0 0 0-46 1zm31 0a8 8 0 1 1-16 0 8 8 0 0 1 16 0zM288 42a8 8 0 0 0 0-15h-34a8 8 0 0 0 0 15h34z"/>
    <circle cx="225.6" cy="34.3" r="7.5"/>
</svg>