<svg xmlns="http://www.w3.org/2000/svg" x="0px" y="0px" viewBox="0 0 1000 1000" xml:space="preserve">
  <g><path fill="#F43F3F" d="M370.1,257.7c-131.9,25-258,88.5-360.1,190.4l98,97.8c76.5-76.4,169.9-125.8,268.2-148.1L370.1,257.7z M175.2,612.9l95.2,95c34-33.9,73.7-58.8,116-74.5l-6-139C305.2,514.5,234.2,554,175.2,612.9z M616.5,255.3l-6,139.6C713.6,415.7,812,466,892,545.8l98-97.8C884.4,342.7,753.3,278.4,616.5,255.3z M432.8,735.9c-37.1,37-37.1,97.1,0,134.1c37.1,37,97.3,37,134.4,0c37.1-37,37.1-97.1,0-134.1C530.1,698.8,469.9,698.8,432.8,735.9z M600.3,628.8c47.3,15.3,91.7,41.7,129.3,79.1l95.2-95C762.3,550.6,686.4,510,606.3,491L600.3,628.8z M534.7,632.5l23.1-530.3H430.7l23.1,530.3H534.7z"/></g>
</svg>
