<svg class="svg-icon" xmlns="http://www.w3.org/2000/svg" viewBox="0 0 24 24">
  <path fill-rule="evenodd" clip-rule="evenodd" d="M19 3H5a3 3 0 0 0-3 3v12a3 3 0 0 0 3 3h14a3 3 0 0 0 3-3V6a3 3 0 0 0-3-3ZM5 1a5 5 0 0 0-5 5v12a5 5 0 0 0 5 5h14a5 5 0 0 0 5-5V6a5 5 0 0 0-5-5H5Z"/>
  <path fill-rule="evenodd" clip-rule="evenodd" d="M7 12c0-.6.4-1 1-1h10a1 1 0 1 1 0 2H8a1 1 0 0 1-1-1Z"/>
  <path fill-rule="evenodd" clip-rule="evenodd" d="M5 8c0-.6.4-1 1-1h10a1 1 0 1 1 0 2H6a1 1 0 0 1-1-1ZM5 16c0-.6.4-1 1-1h10a1 1 0 1 1 0 2H6a1 1 0 0 1-1-1Z"/>
</svg>
