<svg xmlns="http://www.w3.org/2000/svg" viewBox="0 0 25 26">
  <path fill-rule="evenodd" d="M11.65 0c-.8 0-1.45.64-1.45 1.44 0 .79.65 1.43 1.45 1.43h.49v.84c-.31.03-.63.08-.94.14-.52.1-.87.6-.77 1.11.1.52.6.87 1.13.77.48-.1.96-.14 1.44-.16V7a.5.5 0 0 0 1 0V5.6a9.52 9.52 0 0 1 5.86 2.58l-1.24 1.5a.5.5 0 1 0 .76.64l1.17-1.4A9.24 9.24 0 0 1 22.7 15H21a.5.5 0 0 0 0 1h1.63a9.16 9.16 0 0 1-2.42 5.1l-.84-.93a.5.5 0 0 0-.74.66l.86.97A9.48 9.48 0 0 1 14 24.06V23a.5.5 0 0 0-1 0v1.08a9.52 9.52 0 0 1-1.41-.15.97.97 0 0 0-1.14.76.96.96 0 0 0 .78 1.12 11.5 11.5 0 0 0 9.33-2.4 11.2 11.2 0 0 0 4.09-8.6 11.04 11.04 0 0 0-3.32-7.88l.8-.78.1.09.66.7.7-.67.7-.66.71-.66-.67-.7-.67-.69-.67-.69-.7.66-.7.66-.7.66.57.6-.84.83a11.4 11.4 0 0 0-5.56-2.5v-.9h.48c.8 0 1.46-.65 1.46-1.44C17 .64 16.34 0 15.54 0h-3.89Zm2.43 3.68V1.9h1.46c.27 0 .48-.21.48-.47a.48.48 0 0 0-.48-.48h-3.89a.48.48 0 0 0-.48.48c0 .26.22.47.48.47h1.46v1.74c.33 0 .65 0 .97.03Zm9.55 1.24-.67-.7-.7.67.66.69.7-.66ZM5.83 7.66c0-.27.21-.48.48-.48h1.95c.26 0 .48.21.48.48 0 .26-.22.48-.48.48H6.3a.48.48 0 0 1-.48-.48Zm-1.95 2.87c0-.27.22-.48.49-.48h3.89c.26 0 .48.21.48.48 0 .26-.22.48-.48.48H4.37a.48.48 0 0 1-.49-.48Zm-.48 8.14a.48.48 0 0 0-.49.47c0 .27.22.48.49.48h4.86c.26 0 .48-.21.48-.48a.48.48 0 0 0-.48-.47H3.4ZM0 16.27c0-.26.22-.48.49-.48h7.77c.26 0 .48.22.48.48 0 .27-.22.48-.48.48H.49a.48.48 0 0 1-.49-.48Zm2.43-3.35a.48.48 0 0 0-.49.48c0 .26.22.48.49.48h5.83c.26 0 .48-.22.48-.48a.48.48 0 0 0-.48-.48H2.43Zm3.4 9.1c0-.27.21-.48.48-.48h1.95c.26 0 .48.21.48.48 0 .26-.22.47-.48.47H6.3a.48.48 0 0 1-.48-.47Zm12.5-10.06a.95.95 0 0 0-.2-1.18.98.98 0 0 0-1.2-.08l-4.96 3.39a2.29 2.29 0 0 0-.33 3.52 2.36 2.36 0 0 0 3.69-.48l3-5.17Zm-5.26 3.7 1.44-.98-.87 1.5a.4.4 0 0 1-.62.08.39.39 0 0 1 .05-.6Z" clip-rule="evenodd"/>
</svg>
